<?xml version="1.0" encoding="UTF-8" standalone="no"?>
<svg xmlns:rdf="http://www.w3.org/1999/02/22-rdf-syntax-ns#" xmlns="http://www.w3.org/2000/svg" height="255.92mm" width="144.39mm" version="1.1" xmlns:cc="http://creativecommons.org/ns#" xmlns:dc="http://purl.org/dc/elements/1.1/" viewBox="0 0 511.62476 906.81455">
<g transform="translate(-115.62 -104.67)">
<path d="m234.48 104.69c-1.0955 0.1001-1.9645 0.59069-2.7711 1.6519-2.7183 2.2666-3.3969 10.986-2.4915 15.29 0.90545 4.3044 6.2319 7.8167 9.402 10.533 1.9538 1.5356 4.0383 2.7675 6.1449 3.6807-0.87879 1.9261-3.2334 5.6386-3.4196 7.9833-0.84316 3.5922-0.72376 2.6236-1.6979 5.4717-3.2986 2.3987-3.743 4.0388-4.8753 5.6248-0.82983 2.6446-1.7406 4.3426-0.94863 6.2689 0.67859 1.586 3.6668 2.5691 5.9314 3.2496-2.8318 2.378-4.42 4.5286-5.212 6.9067-0.90744 2.1512-0.56497 4.1895 0.56734 6.1138-1.1303 0.11343-1.8135 0.79192-2.0403 2.4914-0.34029 1.3592 0.34188 4.5305 0.34188 6.9106-0.56715 1.6995-1.3606 3.5084-1.9277 5.8884-0.68058 2.0358-3.6264 5.548-1.4732 8.3798 2.1492 2.6049 10.079 7.2483 13.705 9.1726 3.1701 1.586 4.6411-0.11005 6.1137 1.9278 1.067 1.7472 1.2706 4.4822 0.96017 8.3409-1.0036 0.1592-1.9743 0.45244-3.1134 0.83176-3.8506-4.3024-7.8149-7.8148-12.344-9.2854-4.7581-1.586-9.6272-2.3768-14.61-1.131-5.5501 0.90545-10.987 4.5278-15.403 6.1138-4.4158 0.67859-5.4355-0.79013-10.078 1.2476-4.8695 2.1532-14.835 7.8127-19.026 11.777-4.6427 3.0566-6.1149 4.7586-7.474 9.5147-1.584 5.0984-1.3596 13.93-1.473 19.48-0.68058 4.8695-2.2656 5.5486-0.79301 10.758 1.4726 4.8695 7.0197 15.856 10.078 19.48 2.9452 3.3989 5.3223 3.9631 7.5869 1.6985 0.45372-0.22487-0.68058 2.0369-2.4915 7.2487-2.0378 4.8695-4.1913 9.1751-9.5146 23.332-6.1173 14.043-17.214 45.077-24.121 61.612-7.0227 16.421-12.459 25.028-16.764 36.807-4.3044 11.663-7.3606 19.365-9.6272 32.73-2.6049 12.911-4.7555 27.977-6.0012 45.191h3.6224c0.90744 1.4726 2.4927 4.077 3.8518 7.8162 1.3592 3.6238 2.9424 8.041 4.7573 13.705 1.7936-0.10309 3.741-0.1596 5.6397-0.22543-2.5743 7.5339-4.734 14.268-6.4287 20.949-2.0378 7.2496-3.5108 12.46-3.9645 20.048-0.79202 7.2456 1.1319 14.947 1.0185 23.554-0.22686 8.0416-1.3614 14.157-2.1534 25.707-1.3612 11.552-2.9442 30.693-3.8516 42.587-0.90545 11.1-1.1311 18.232-1.1311 25.707-0.11542 7.4764 0.45471 12.344 0.79301 18.575 0.11343 5.8924 0.11343 11.214 0 16.421 4.3044 0.68058 8.0392 0.7929 12.119 0.7929 1.675-0.0949 3.2403-0.21908 4.7806-0.38867-0.17711 5.4294-0.62725 11.444-1.1582 18.512-1.1323 8.7222-2.9418 20.727-3.6224 29.901-0.56516 8.3779-1.0199 14.155-0.45471 23.441-0.22487 9.1739 0.33929 19.822 1.6985 32.847 1.4726 12.909 4.3036 30.578 7.2488 45.191 2.6049 14.27 6.4585 29.784 8.4963 40.884 1.2326 8.0474 1.9709 14.329 2.2505 19.399-3.1591 0.80089-2.676 1.2911-2.1416 4.3842 0 3.6238 3.173 11.434 3.8516 15.512 0.22686 3.2855-1.0175 3.1736-1.1309 5.3248-0.22487 2.1512 0.11343 4.8747 0.56735 8.1582-0.0199 0.15642-0.0259 0.25401-0.0418 0.40811-0.0915 0.16975-0.20915 0.32493-0.29551 0.4975-0.2792 1.4902-0.50088 2.8612-0.74625 4.2832-1.0254-0.42827-2.1786-0.39531-3.6729 0.13214-2.4915 0.3383-5.211 1.4746-7.2488 3.4009-1.9243 1.586-4.0735 5.5471-3.3969 7.5869 0.45372 1.8089 2.0372 3.0566 5.6629 3.7352-3.0586 2.8338-4.5336 4.7568-4.8739 5.7757-0.67859 0.68058 0.34128 1.1334 2.6079-0.7929 1.828-2.0171 5.8516-6.8795 9.4525-10.315-0.0478 0.36855-0.11741 0.78002-0.16318 1.1427-0.79202 4.4178-0.90724 7.8178-1.2475 11.893-0.45372 3.8487-0.56814 7.1327-0.79301 10.758 0.24258-0.29611 0.4565-0.5377 0.6957-0.82786 0 0.10149-0.0199 0.27784-0.0199 0.377-0.56715 4.3024-0.67919 4.867 0.11343 6.9067 0.76814 1.9782 2.506 3.5315 4.7806 5.0683-0.0836 0.089-0.16517 0.167-0.24875 0.2565 0.22686 1.1323 0.34128 2.1488 0.45471 3.1677 0.0955-0.088 0.19303-0.1652 0.28776-0.2526 0.12736 0.9002 1.9227 1.5002 4.5824 1.5002 2.9452-0.1134 8.719-1.2455 14.723-1.5857 6.0018-0.4498 15.405-0.2252 20.728-0.5675 4.5292-0.6786 6.6838-1.5845 8.1544-2.7168 1.072-1.5015 1.1094-3.3125-0.23323-5.8068 0.0856 0.053 0.14527 0.09 0.23323 0.1439-0.23204-2.0183-0.55481-3.6308-0.85511-4.9322-0.0657-0.45474-0.15124-0.86205-0.27979-1.1816-0.002-0.004 0-0.008 0-0.0119-0.0318-0.11562-0.0756-0.34663-0.10547-0.44309-0.56516-1.584-0.90406-1.8126-1.4692-1.5858l-0.22924-1.0183c-0.0557-0.0227-0.0915-0.0396-0.14726-0.0621 0.0915-2.3964 0.0915-4.9318-0.0816-7.5286-0.56715-3.8506-1.2457-8.6063-2.4915-11.213-1.3592-2.8318-2.8322-4.5303-4.8699-5.0955 0.45173-2.8298 0.34228-5.8891-0.3383-9.1726-1.0169-3.7392-3.9609-6.6854-4.528-10.988-0.45372-4.7561 0.56516-10.534 1.2438-14.723 0.22686-4.0755 3.1717-7.0216 1.0185-8.8345-0.33989-0.30883-0.77709-0.59224-1.271-0.85896 0.99062-10.726 1.6533-20.557 1.9512-29.376 0.11343-10.65-1.3544-17.784-0.45094-27.071 0.56715-9.741 4.9806-19.931 5.3209-27.973 0.22686-7.8147-2.0386-10.538-3.2843-19.029-1.3592-9.1739-2.8312-20.046-4.4152-33.978 10.079 7.9282 19.366 15.744 28.315 23.899 8.7202 7.8127 15.514 15.74 24.688 24.238 9.1739 8.6048 19.027 18.119 28.653 25.932 9.0605 7.0227 19.144 12.233 26.278 18.236 6.7958 5.6635 11.209 12.006 15.854 17.331 3.6518 4.1857 6.6428 8.0067 9.3942 11.633-0.16119 0.68044-0.31621 1.3668-0.44696 2.0677 2.3761 4.189 5.7742 9.2865 11.551 15.29 5.5501 5.5481 13.821 13.813 21.295 20.044 1.0587 0.92027 2.1856 1.8124 3.2921 2.7129 0.0836 0.16596 0.13134 0.29314 0.21771 0.46253-3.6218-0.22686-6.7923 1.247-8.6052 3.5136-2.2646 2.1492-4.7555 8.6041-3.5098 10.642 1.0189 1.586 7.7001 2.4948 10.416 1.0222 2.382-1.6995 4.0815-5.0956 4.6447-10.646 0.68058-0.45571 2.1506-0.11303 4.4192 1.4731 1.9243 1.4706 5.2068 3.9628 8.4923 7.0194 3.3969 2.7183 7.1367 6.4539 10.759 9.8528 3.0586 2.9432 6.0046 6.6838 8.8344 9.0638 0.76178 0.59487 1.5856 1.307 2.4176 2.0094 3.5012 4.7999 6.7578 10.236 9.5846 13.728 3.2875 4.1909 4.3068 6.3414 7.3654 8.1543 3.2835 1.1323 6.9039 1.8127 10.416 1.5858 2.8049-0.1144 5.1593-0.7843 7.0778-2.0055 1.0356 0.8494 3.1388 0.4096 4.5864-0.035 0.79401-0.6825 1.0205-0.6808 1.5856-4.3025 0.45571-4.3044 2.153-12.344 1.5858-19.255-0.90744-7.2456-2.8314-14.615-6.2303-22.539-3.8526-8.3819-10.871-18.121-14.948-24.801-4.3024-6.6824-7.4766-11.553-8.6089-14.614-1.1323-3.2835 0.67998-4.5243 1.9277-5.4298 0.90545-1.6995 4.8691 1.0185 4.0771-2.7207-1.3612-4.3024-7.4742-14.722-10.533-20.386-3.7372-6.0018-6.6814-10.42-8.8346-13.254-2.1512-2.9412-1.9281-3.8493-3.735-3.6224-2.2065 0-6.2599 1.787-7.9367 3.5058-1.0913-0.39024-1.7838 0.41761-3.2765 0.91725-2.8318 0.10945-6.5666 1.9223-9.9655 3.7352-3.9601 1.8129-7.245 3.8502-11.551 6.5686-1.1323-2.0358-2.0394-3.627-3.1717-4.7574-1.2497-1.3572-2.3778-2.2611-3.4007-2.7168-0.55322-0.11662-1.1616-0.15343-1.8191-0.11264-7.8635-9.2665-15.098-18.622-21.626-28.653-7.9282-11.665-13.929-26.732-20.611-36.473-6.7958-10.306-11.213-14.045-20.273-22.99-9.8525-9.1739-27.974-23.671-35.56-30.351-7.7033-6.9113-6.4578-6.2317-8.0418-9.744-0.56635-1.207-0.93191-2.4806-1.1542-3.7973l2.2891 0.28762 2.4915-15.065c1.4746 0 3.0578-2.7148 4.7573-8.6052 1.3572-6.4556 3.0548-16.534 4.6409-26.729 1.6975-10.079 3.6252-23.557 5.3246-32.617 0.90744-9.2873 1.1323-14.156 2.4915-22.084 1.3592-8.2665 3.2841-17.101 5.7756-26.504 2.7183 1.1363 4.9812-0.22548 6.7941-3.6224 1.8109-3.9621 2.264-11.665 3.5098-17.44 1.0209-5.777 1.586-10.987 2.1532-16.083 0.3383-5.0984-0.0002-9.4014 0.3381-15.065 0-4.5897 0.0876-9.8597 0.21372-15.473 1.3068 0.58198 2.4821 1.0764 3.2998 1.3215 3.9641 1.0209 0.79162-1.0184 1.0185-4.4153 0-3.6238 0.68138-9.0621 0.79282-16.763 0.45372-8.2665 0.90565-22.537 0.90565-30.577-0.67859-8.2684-1.3582-10.309-3.2805-17.894-1.9243-8.0416-4.6478-17.444-8.1582-29.108 7.5879-6.3441 13.252-11.441 17.894-15.745 4.0775-4.4158 5.8906-7.4714 8.9472-10.074 3.2835-2.7183 6.3449-2.9481 10.082-6.347 3.3969-3.8506 7.0225-8.8302 10.871-15.399 2.4915-1.4746 4.8683-2.9476 6.6812-4.8739 1.6995-1.9243 2.3751-4.5278 4.1899-6.1138 1.4686-2.0378 4.4164-1.3607 5.7756-5.3248 1.0189-4.1909 1.2453-10.647 0.68018-19.368 5.2098-3.2835 8.4929-9.0595 10.304-16.872 1.4726-8.2684 0.90744-22.423 0-30.69-1.1303-8.2665-3.1687-12.46-6.1139-19.142-3.2835-7.1342-7.361-14.836-12.686-23.103 1.2477-1.3612 3.0586-3.0588 5.8884-5.5502 2.8298-2.4915 6.1177-5.4337 10.758-8.8306-0.23522 0.0428-0.518 0.039-0.76954 0.0661 4.5704-2.604 8.9854-4.4371 13.227-5.4025 4.8715-1.2457 10.192-1.1318 13.817-1.0183 3.2855-0.56715 5.8878 0.11204 6.9067-1.0222 0.517-1.0279-0.39183-2.8329-1.1427-4.3531 1.9948 0.29818 4.0385 0.60582 5.5656 0.8473 4.0775 0.45372 3.06-0.11621 5.6629 0.45086 2.6049 0.34029 5.2086 1.2471 9.1727 2.266 16.31 2.6049 34.43 5.9992 55.269 10.642 20.839 4.6427 50.287 11.666 68.181 16.309 17.212 3.9641 25.146 6.6819 35.563 9.0599 10.193 2.378 18.46 4.3011 25.256 5.7757 1.586 15.516 3.9621 25.255 8.0376 30.919 3.8546 4.8715 9.0644 3.1715 15.178 1.0183 5.775-2.378 18.461-5.8867 20.16-13.588 1.3592-8.2684-6.7939-26.388-10.529-33.41-4.1929-6.7958-8.6099-6.7984-12.799-7.0233-4.5312-0.11343-9.4041 1.8134-12.461 4.8701-3.0566 2.4935-3.2855 8.9502-5.8924 10.65-2.8318 1.586-7.3572-0.22646-11.435-0.68018-4.3044-0.67859-4.3024-1.2488-14.835-3.8517-11.098-3.174-33.525-9.0589-49.381-13.25-16.083-4.4158-29.22-8.6103-45.078-12.123-16.083-3.9621-36.92-7.3582-48.926-9.7362s-17.669-3.4003-22.652-4.4192c-5.5461-1.4706-4.8677-2.8304-8.9432-3.6224-1.464-0.30797-3.0501-0.59111-4.707-0.85507 1.7637-2.7916 2.8135-4.9433 2.8919-6.5064 0-2.38-2.9458-2.4885-4.8701-2.9422-2.0398-0.45173-4.6451-1.1312-7.3614-0.79289l-1.2127-1.442c0.0279 0.1781 0.0677 0.33975 0.0816 0.53636-1.0209 0.67859-1.3606 0.90515-2.266 0.6763-0.90545-0.22487-1.6981-1.0185-2.3786-1.9239-2.1532-2.0378-4.1874-3.5099-6.1137-4.4153-2.0398-1.1343-5.3242-0.79264-6.3431-1.1349-1.3275-0.55276-1.8883-1.2162-1.6987-1.9861-0.19502-0.0215-0.40556-0.0334-0.65292-0.0273-0.83918 0.0211-1.9832 0.20385-3.428 0.54414-4.5272 1.0189-12.458 3.51-18.571 5.3209-4.6001 0.78193-8.8649 1.5542-13.001 1.9278 0.6372-1.9292 1.3086-3.6687 2.0212-5.0916 0.11343-0.34029 0.67959-1.9314 1.6985-4.7612 1.0209-3.2855 2.2674-9.4028 4.1937-12.686 1.9156-3.2652 3.6065-5.6324 6.2966-7.1049 0 0.0263 0.0239 0.0553 0.0358 0.0816 7.4744-5.4387 12.342-11.662 15.854-19.138 3.0626-7.7013 3.7402-18.689 3.8556-25.598-0.11542-7.1342-2.2716-11.777-3.8556-16.079-1.8129-4.6447-3.8455-8.0427-6.1101-10.65 0.79202-0.90545 0.677-1.5839 0.56357-2.4914-0.56715-1.1323-1.587-2.6051-2.6079-3.0588-0.90545-0.44974-2.3755-0.67914-3.5098-0.22542-1.3572-1.6975-4.6409-3.8509-8.9472-6.4558-4.5312-2.6029-12.456-8.2652-18.12-9.1727-5.8884-1.3572-10.647-0.33925-16.876 1.6985-6.6824 1.586-13.703 4.5291-21.972 8.3798-10.42-5.775-18.575-8.8314-24.463-10.871-3.822-1.1318-6.2741-2.044-8.0999-1.8773zm123.07 845.92c0 0.006 0.0199 0.01 0.0199 0.0159-0.0478 0.0139-0.0915 0.0294-0.1393 0.0428 0.0418-0.0159 0.0796-0.041 0.1194-0.0583z"/>
</g>
</svg>
